# xmcd
#
# Track frame offsets: 
#        150
#        17728
#        37732
#        56963
#        75733
#        96702
#        118966
#        134765
#        152438
#        169727
#        185776
#        201738
#        220742
#        234874
#        249902
#        269918
#        288492
#        309210
#        330368
#
# Disc length: 4662 seconds
#
# Revision: 0
# Processed by: cddbd v1.4PL0 Copyright (c) Steve Scherf et al.
# Submitted via: ExactAudioCopy v0.95a3
#
DISCID=1d123413
DTITLE=Various Artist - 女儿红-台湾八点党2003全胜主题曲
DYEAR=2003
DGENRE=Other
TTITLE0=顺子-我的朋友
TTITLE1=戴爱玲-爱了就知道
TTITLE2=林宸希-不再问
TTITLE3=莫文蔚-盛夏的果实
TTITLE4=周蕙-体温
TTITLE5=温岚-蓝色雨
TTITLE6=TWINS-下一站天后
TTITLE7=萧亚轩-吻
TTITLE8=陈慧琳-最佳位置
TTITLE9=卢巧音-吉祥物
TTITLE10=林忆莲-最好的事
TTITLE11=SHE-白色恋歌
TTITLE12=容祖儿-我的骄傲
TTITLE13=杨千桦-什么都不怕
TTITLE14=孙燕姿-未完成
TTITLE15=陈琳-爱就爱了
TTITLE16=梁静茹-分手快乐
TTITLE17=候湘婷-暖昧
TTITLE18=4inLove-一千零一个愿望
EXTD=
EXTT0=
EXTT1=
EXTT2=
EXTT3=
EXTT4=
EXTT5=
EXTT6=
EXTT7=
EXTT8=
EXTT9=
EXTT10=
EXTT11=
EXTT12=
EXTT13=
EXTT14=
EXTT15=
EXTT16=
EXTT17=
EXTT18=
PLAYORDER=
